<svg width="33" height="33" viewBox="0 0 33 33" fill="none" xmlns="http://www.w3.org/2000/svg">
<ellipse cx="16.1208" cy="16.5143" rx="16.0524" ry="16.464" fill="#FF0000"/>
<path d="M21.4689 20.6025L20.7033 12.6407C20.6869 12.4639 20.5256 12.3301 20.337 12.3301H18.7621C18.7402 11.0018 17.5645 9.92865 16.1208 9.92865C14.6772 9.92865 13.5015 11.0018 13.4796 12.3301H11.9047C11.7133 12.3301 11.5547 12.4639 11.5383 12.6407L10.7728 20.6025C10.7728 20.6126 10.77 20.6227 10.77 20.6328C10.77 21.5393 11.6696 22.2767 12.7769 22.2767H19.4647C20.5721 22.2767 21.4716 21.5393 21.4716 20.6328C21.4716 20.6227 21.4716 20.6126 21.4689 20.6025ZM16.1208 10.6104C17.1571 10.6104 18.002 11.3781 18.0238 12.3301H14.2178C14.2397 11.3781 15.0846 10.6104 16.1208 10.6104ZM19.4647 21.5949H12.7769C12.0824 21.5949 11.5192 21.1707 11.5083 20.648L12.241 13.0144H13.4769V14.0497C13.4769 14.2391 13.6409 14.3906 13.846 14.3906C14.051 14.3906 14.2151 14.2391 14.2151 14.0497V13.0144H18.0238V14.0497C18.0238 14.2391 18.1879 14.3906 18.3929 14.3906C18.598 14.3906 18.7621 14.2391 18.7621 14.0497V13.0144H19.9979L20.7334 20.648C20.7225 21.1707 20.1565 21.5949 19.4647 21.5949Z" fill="white"/>
</svg>
