<svg width="33" height="33" viewBox="0 0 33 33" fill="none" xmlns="http://www.w3.org/2000/svg">
<ellipse cx="16.1208" cy="16.5143" rx="16.0524" ry="16.464" fill="#008000"/>
<path d="M21.4689 20.6026L20.7033 12.6407C20.6869 12.464 20.5256 12.3301 20.337 12.3301H18.7621C18.7402 11.0019 17.5645 9.92871 16.1208 9.92871C14.6772 9.92871 13.5015 11.0019 13.4796 12.3301H11.9047C11.7133 12.3301 11.5547 12.464 11.5383 12.6407L10.7728 20.6026C10.7728 20.6127 10.77 20.6228 10.77 20.6329C10.77 21.5394 11.6696 22.2767 12.7769 22.2767H19.4647C20.5721 22.2767 21.4716 21.5394 21.4716 20.6329C21.4716 20.6228 21.4716 20.6127 21.4689 20.6026ZM16.1208 10.6105C17.1571 10.6105 18.002 11.3782 18.0238 12.3301H14.2178C14.2397 11.3782 15.0846 10.6105 16.1208 10.6105ZM19.4647 21.5949H12.7769C12.0824 21.5949 11.5192 21.1707 11.5083 20.648L12.241 13.0145H13.4769V14.0498C13.4769 14.2392 13.6409 14.3907 13.846 14.3907C14.051 14.3907 14.2151 14.2392 14.2151 14.0498V13.0145H18.0238V14.0498C18.0238 14.2392 18.1879 14.3907 18.3929 14.3907C18.598 14.3907 18.7621 14.2392 18.7621 14.0498V13.0145H19.9979L20.7334 20.648C20.7225 21.1707 20.1565 21.5949 19.4647 21.5949Z" fill="white"/>
</svg>
